<?xml version="1.0" standalone="no"?>
<!DOCTYPE svg PUBLIC "-//W3C//DTD SVG 20010904//EN"
 "http://www.w3.org/TR/2001/REC-SVG-20010904/DTD/svg10.dtd">
<svg version="1.0" xmlns="http://www.w3.org/2000/svg"
 width="512.000000pt" height="512.000000pt" viewBox="0 0 512.000000 512.000000"
 preserveAspectRatio="xMidYMid meet">
<metadata>
Created by potrace 1.14, written by Peter Selinger 2001-2017
</metadata>
<g transform="translate(0.000000,512.000000) scale(0.100000,-0.100000)"
fill="#000000" stroke="none">
<path d="M1115 4401 c-26 -114 -26 -114 -82 -53 -26 29 -52 52 -57 52 -11 0 0
-78 26 -170 23 -84 27 -202 10 -265 -6 -22 -27 -65 -46 -95 -108 -172 -131
-231 -147 -369 -10 -91 -26 -199 -35 -241 -5 -22 1 -29 35 -48 22 -13 59 -45
83 -71 60 -68 113 -92 215 -99 100 -6 112 2 145 90 15 43 29 63 49 74 40 20
81 17 120 -9 52 -36 46 -69 -40 -191 -39 -56 -123 -186 -187 -291 -65 -104
-154 -244 -199 -310 -94 -139 -152 -238 -224 -384 -28 -57 -85 -155 -127 -218
-42 -63 -79 -127 -83 -141 -11 -39 33 -148 62 -156 76 -20 130 10 142 80 20
119 76 216 317 549 20 28 54 75 74 105 157 226 397 500 439 500 24 0 112 -93
166 -175 71 -108 84 -170 84 -400 l0 -200 -37 -91 c-21 -49 -47 -121 -59 -160
-27 -89 -78 -182 -144 -264 -66 -82 -279 -284 -405 -383 -95 -74 -130 -120
-130 -170 0 -12 9 -56 21 -97 14 -52 19 -89 15 -120 -6 -36 0 -62 26 -132 48
-131 45 -132 243 132 39 52 95 130 125 174 122 177 276 304 763 627 276 184
309 188 570 63 320 -152 945 -464 1080 -538 209 -115 248 -126 510 -139 119
-5 220 -8 223 -5 10 11 -45 115 -79 149 -24 23 -40 52 -51 89 -8 31 -26 66
-38 77 -13 12 -120 62 -238 111 -381 159 -495 214 -680 326 -189 115 -266 184
-439 395 -171 207 -251 343 -236 399 19 72 20 70 -196 507 -119 239 -176 330
-303 481 -42 49 -76 95 -76 101 0 16 21 27 256 126 408 173 561 236 618 252
55 16 62 16 122 0 35 -9 78 -15 94 -13 23 3 31 0 36 -14 13 -41 123 -145 186
-176 217 -107 477 -15 581 206 29 61 32 75 32 167 0 118 -17 177 -75 258 -187
261 -592 224 -731 -67 -15 -32 -31 -76 -34 -97 -5 -29 -12 -40 -28 -44 -128
-27 -252 -61 -602 -160 -225 -64 -446 -121 -490 -126 -127 -17 -211 -38 -332
-85 -62 -24 -120 -41 -128 -37 -9 3 -37 48 -62 99 -42 86 -91 154 -111 154 -4
0 -22 -29 -40 -65 -17 -35 -43 -72 -57 -81 -26 -17 -27 -16 -63 18 -42 41 -91
68 -122 68 -16 0 -20 5 -16 18 3 9 21 77 40 150 35 130 36 134 26 230 -14 128
-17 133 -41 86 -29 -55 -69 -92 -106 -100 l-31 -6 -7 68 c-3 38 -10 79 -15 92
-8 19 -64 62 -81 62 -3 0 -14 -36 -24 -79z"/>
</g>
</svg>
